<svg width="60" height="60" viewBox="0 0 60 60" fill="none" xmlns="http://www.w3.org/2000/svg">
<g clip-path="url(#clip0_18176_6272)">
<path d="M27.9179 45.3522C27.6925 45.4126 27.479 45.4531 27.2776 45.4739C27.0761 45.4947 26.8704 45.5 26.6607 45.4898C21.9405 45.2607 17.7884 43.6097 14.2044 40.5371C10.6203 37.4645 8.24715 33.7593 7.08486 29.4216L4.7319 20.6402C4.52441 19.8658 4.57142 19.1063 4.87293 18.3615C5.17445 17.6167 5.65748 17.0059 6.32204 16.5291L16.7927 9.24164C17.202 8.96598 17.632 8.76776 18.0827 8.64698C18.5335 8.5262 19.005 8.48285 19.4973 8.51695L32.2089 9.59272C33.0241 9.67307 33.7485 9.96035 34.382 10.4546C35.0155 10.9488 35.4353 11.5833 35.6415 12.358L37.9945 21.1394C39.1564 25.4758 38.9538 29.8712 37.3866 34.3255C35.8194 38.7797 33.049 42.2855 29.0755 44.8428C28.8989 44.9565 28.7182 45.0547 28.5333 45.1375C28.3484 45.2202 28.1432 45.2918 27.9179 45.3522Z" fill="#9CCBFF"/>
<path d="M33.0826 52.3521C32.8572 52.2918 32.6521 52.2202 32.4672 52.1375C32.2823 52.0547 32.1016 51.9565 31.925 51.8428C27.9518 49.2842 25.1814 45.7784 23.6139 41.3254C22.0463 36.8724 21.8437 32.4771 23.006 28.1393L25.3589 19.358C25.5664 18.5836 25.9869 17.9493 26.6204 17.4551C27.2539 16.9609 27.9776 16.6734 28.7916 16.5927L41.5032 15.5169C41.9954 15.4828 42.4669 15.5262 42.9177 15.647C43.3685 15.7677 43.7985 15.966 44.2077 16.2416L54.6784 23.5291C55.3442 24.0063 55.8279 24.6172 56.1294 25.362C56.431 26.1068 56.4773 26.8662 56.2685 27.6402L53.9156 36.4216C52.7536 40.758 50.3805 44.4632 46.7961 47.5371C43.2117 50.611 39.0596 52.2619 34.3398 52.4898C34.13 52.5 33.9244 52.4947 33.7229 52.4739C33.5214 52.4531 33.308 52.4125 33.0826 52.3521Z" fill="#007AFF"/>
<path d="M32.2132 32.4159L36.0015 38.6407L48.5055 29.5678" stroke="white" stroke-width="3" stroke-linecap="round" stroke-linejoin="round"/>
</g>
<defs>
<clipPath id="clip0_18176_6272">
<rect width="60" height="60" fill="white"/>
</clipPath>
</defs>
</svg>
