<svg width="60" height="60" viewBox="0 0 60 60" fill="none" xmlns="http://www.w3.org/2000/svg">
<g clip-path="url(#clip0_18176_6280)">
<path d="M24 47C21.2667 47 18.6833 46.4747 16.25 45.424C13.8167 44.3733 11.692 42.94 9.876 41.124C8.06 39.308 6.62667 37.1833 5.576 34.75C4.52533 32.3167 4 29.7333 4 27C4 24.2333 4.52533 21.642 5.576 19.226C6.62667 16.81 8.06 14.6933 9.876 12.876C11.692 11.0587 13.8167 9.62533 16.25 8.576C18.6833 7.52667 21.2667 7.00133 24 7C26.7667 7 29.3587 7.52533 31.776 8.576C34.1933 9.62667 36.3093 11.06 38.124 12.876C39.9387 14.692 41.372 16.8087 42.424 19.226C43.476 21.6433 44.0013 24.2347 44 27C44 29.7333 43.4747 32.3167 42.424 34.75C41.3733 37.1833 39.94 39.3087 38.124 41.126C36.308 42.9433 34.1913 44.3767 31.774 45.426C29.3567 46.4753 26.7653 47 24 47ZM24 42.9C24.8667 41.7 25.6167 40.45 26.25 39.15C26.8833 37.85 27.4 36.4667 27.8 35H20.2C20.6 36.4667 21.1167 37.85 21.75 39.15C22.3833 40.45 23.1333 41.7 24 42.9ZM18.8 42.1C18.2 41 17.6753 39.858 17.226 38.674C16.7767 37.49 16.4013 36.2653 16.1 35H10.2C11.1667 36.6667 12.3753 38.1167 13.826 39.35C15.2767 40.5833 16.9347 41.5 18.8 42.1ZM29.2 42.1C31.0667 41.5 32.7253 40.5833 34.176 39.35C35.6267 38.1167 36.8347 36.6667 37.8 35H31.9C31.6 36.2667 31.2253 37.492 30.776 38.676C30.3267 39.86 29.8013 41.0013 29.2 42.1ZM8.5 31H15.3C15.2 30.3333 15.1253 29.6753 15.076 29.026C15.0267 28.3767 15.0013 27.7013 15 27C14.9987 26.2987 15.024 25.624 15.076 24.976C15.128 24.328 15.2027 23.6693 15.3 23H8.5C8.33333 23.6667 8.20867 24.3253 8.126 24.976C8.04333 25.6267 8.00133 26.3013 8 27C7.99867 27.6987 8.04067 28.374 8.126 29.026C8.21133 29.678 8.336 30.336 8.5 31ZM19.3 31H28.7C28.8 30.3333 28.8753 29.6753 28.926 29.026C28.9767 28.3767 29.0013 27.7013 29 27C28.9987 26.2987 28.9733 25.624 28.924 24.976C28.8747 24.328 28.8 23.6693 28.7 23H19.3C19.2 23.6667 19.1253 24.3253 19.076 24.976C19.0267 25.6267 19.0013 26.3013 19 27C18.9987 27.6987 19.024 28.374 19.076 29.026C19.128 29.678 19.2027 30.336 19.3 31ZM32.7 31H39.5C39.6667 30.3333 39.792 29.6753 39.876 29.026C39.96 28.3767 40.0013 27.7013 40 27C39.9987 26.2987 39.9573 25.624 39.876 24.976C39.7947 24.328 39.6693 23.6693 39.5 23H32.7C32.8 23.6667 32.8753 24.3253 32.926 24.976C32.9767 25.6267 33.0013 26.3013 33 27C32.9987 27.6987 32.9733 28.374 32.924 29.026C32.8747 29.678 32.8 30.336 32.7 31ZM31.9 19H37.8C36.8333 17.3333 35.6253 15.8833 34.176 14.65C32.7267 13.4167 31.068 12.5 29.2 11.9C29.8 13 30.3253 14.142 30.776 15.326C31.2267 16.51 31.6013 17.7347 31.9 19ZM20.2 19H27.8C27.4 17.5333 26.8833 16.15 26.25 14.85C25.6167 13.55 24.8667 12.3 24 11.1C23.1333 12.3 22.3833 13.55 21.75 14.85C21.1167 16.15 20.6 17.5333 20.2 19ZM10.2 19H16.1C16.4 17.7333 16.7753 16.508 17.226 15.324C17.6767 14.14 18.2013 12.9987 18.8 11.9C16.9333 12.5 15.2747 13.4167 13.824 14.65C12.3733 15.8833 11.1653 17.3333 10.2 19Z" fill="#9CCBFF"/>
<path d="M21 25C21 22.7909 22.7909 21 25 21H51C53.2091 21 55 22.7909 55 25V44.2C55 46.4091 53.2091 48.2 51 48.2H30.4703C29.5211 48.2 28.6029 48.5375 27.8797 49.1522L24.2953 52.199C22.9963 53.3031 21 52.3799 21 50.6751V48.2V25Z" fill="#007AFF"/>
<path d="M41.6504 39.541L41.0352 37.9238H35.7969L35.1816 39.5762C34.9414 40.2207 34.7363 40.6572 34.5664 40.8857C34.3965 41.1084 34.1182 41.2197 33.7314 41.2197C33.4033 41.2197 33.1133 41.0996 32.8613 40.8594C32.6094 40.6191 32.4834 40.3467 32.4834 40.042C32.4834 39.8662 32.5127 39.6846 32.5713 39.4971C32.6299 39.3096 32.7266 39.0488 32.8613 38.7148L36.1572 30.3477C36.251 30.1074 36.3623 29.8203 36.4912 29.4863C36.626 29.1465 36.7666 28.8652 36.9131 28.6426C37.0654 28.4199 37.2617 28.2412 37.502 28.1064C37.748 27.9658 38.0498 27.8955 38.4072 27.8955C38.7705 27.8955 39.0723 27.9658 39.3125 28.1064C39.5586 28.2412 39.7549 28.417 39.9014 28.6338C40.0537 28.8506 40.1797 29.085 40.2793 29.3369C40.3848 29.583 40.5166 29.9141 40.6748 30.3301L44.041 38.6445C44.3047 39.2773 44.4365 39.7373 44.4365 40.0244C44.4365 40.3232 44.3105 40.5986 44.0586 40.8506C43.8125 41.0967 43.5137 41.2197 43.1621 41.2197C42.957 41.2197 42.7812 41.1816 42.6348 41.1055C42.4883 41.0352 42.3652 40.9385 42.2656 40.8154C42.166 40.6865 42.0576 40.4932 41.9404 40.2354C41.8291 39.9717 41.7324 39.7402 41.6504 39.541ZM36.4824 35.9639H40.332L38.3896 30.6465L36.4824 35.9639Z" fill="white"/>
</g>
<defs>
<clipPath id="clip0_18176_6280">
<rect width="60" height="60" fill="white"/>
</clipPath>
</defs>
</svg>
