<svg width="60" height="60" viewBox="0 0 60 60" fill="none" xmlns="http://www.w3.org/2000/svg">
<g clip-path="url(#clip0_18176_6284)">
<path fill-rule="evenodd" clip-rule="evenodd" d="M43.4841 43.6889C39.6271 46.5447 34.8846 48.095 30.0033 48.0957C25.9888 48.1015 22.053 47.0542 18.6242 45.072C18.3743 44.9276 18.0755 44.8909 17.8004 44.9784L9.91037 47.4889C9.12489 47.7388 8.39132 46.9845 8.66308 46.2063L11.2496 38.7994C11.3527 38.5041 11.3104 38.1784 11.1437 37.9137C8.72195 34.0675 7.65222 29.5776 8.09941 25.1019C8.56285 20.4635 10.6292 16.1039 13.9732 12.7096C17.3172 9.31519 21.7489 7.07879 26.5705 6.35245C31.3922 5.62611 36.33 6.45109 40.6066 8.6975C44.8832 10.9439 48.2556 14.4842 50.193 18.7609C52.1304 23.0377 52.5227 27.808 51.3081 32.3209C50.0935 36.8338 47.3411 40.833 43.4841 43.6889ZM18.4762 29.1951C20.212 29.1951 21.6191 27.7848 21.6191 26.0451C21.6191 24.3054 20.212 22.8951 18.4762 22.8951C16.7405 22.8951 15.3334 24.3054 15.3334 26.0451C15.3334 27.7848 16.7405 29.1951 18.4762 29.1951ZM33.1429 26.0451C33.1429 27.7848 31.7358 29.1951 30 29.1951C28.2643 29.1951 26.8572 27.7848 26.8572 26.0451C26.8572 24.3054 28.2643 22.8951 30 22.8951C31.7358 22.8951 33.1429 24.3054 33.1429 26.0451ZM41.5238 29.1951C43.2596 29.1951 44.6667 27.7848 44.6667 26.0451C44.6667 24.3054 43.2596 22.8951 41.5238 22.8951C39.7881 22.8951 38.381 24.3054 38.381 26.0451C38.381 27.7848 39.7881 29.1951 41.5238 29.1951Z" fill="#9CCBFF"/>
<path d="M31.2035 18.5771C31.3606 18.1154 31.6502 17.7159 32.0325 17.4335C32.4148 17.1512 32.8711 16.9997 33.3388 17H45.0356C45.3946 17 45.7484 17.0894 46.068 17.2608C46.3875 17.4323 46.6636 17.6809 46.8736 17.9861C47.0835 18.2913 47.2213 18.6445 47.2755 19.0165C47.3297 19.3885 47.2988 19.7687 47.1854 20.1257L44.5534 28.4006H51.7314C53.7307 28.4006 54.7494 30.9221 53.3573 32.4289L33.3079 54.1205C31.3974 56.1878 28.1021 54.3219 28.7021 51.5136L31.0041 40.7437L28.1583 40.7323C27.6514 40.73 27.1524 40.6004 26.7031 40.3543C26.2538 40.1083 25.8674 39.7529 25.5761 39.318C25.2848 38.8832 25.0971 38.3815 25.0289 37.8549C24.9606 37.3284 25.0137 36.7924 25.1838 36.2918L31.2035 18.5771Z" fill="#007AFF"/>
</g>
<defs>
<clipPath id="clip0_18176_6284">
<rect width="60" height="60" fill="white"/>
</clipPath>
</defs>
</svg>
