<svg width="18" height="18" viewBox="0 0 18 18" fill="none" xmlns="http://www.w3.org/2000/svg">
<g id="mingcute:ins-fill" clip-path="url(#clip0_18176_25578)">
<g id="Group">
<path id="Vector" d="M12 2.25C12.9946 2.25 13.9484 2.64509 14.6517 3.34835C15.3549 4.05161 15.75 5.00544 15.75 6V12C15.75 12.9946 15.3549 13.9484 14.6517 14.6517C13.9484 15.3549 12.9946 15.75 12 15.75H6C5.00544 15.75 4.05161 15.3549 3.34835 14.6517C2.64509 13.9484 2.25 12.9946 2.25 12V6C2.25 5.00544 2.64509 4.05161 3.34835 3.34835C4.05161 2.64509 5.00544 2.25 6 2.25H12ZM9 6C8.20435 6 7.44129 6.31607 6.87868 6.87868C6.31607 7.44129 6 8.20435 6 9C6 9.79565 6.31607 10.5587 6.87868 11.1213C7.44129 11.6839 8.20435 12 9 12C9.79565 12 10.5587 11.6839 11.1213 11.1213C11.6839 10.5587 12 9.79565 12 9C12 8.20435 11.6839 7.44129 11.1213 6.87868C10.5587 6.31607 9.79565 6 9 6ZM9 7.5C9.39782 7.5 9.77936 7.65804 10.0607 7.93934C10.342 8.22064 10.5 8.60218 10.5 9C10.5 9.39782 10.342 9.77936 10.0607 10.0607C9.77936 10.342 9.39782 10.5 9 10.5C8.60218 10.5 8.22064 10.342 7.93934 10.0607C7.65804 9.77936 7.5 9.39782 7.5 9C7.5 8.60218 7.65804 8.22064 7.93934 7.93934C8.22064 7.65804 8.60218 7.5 9 7.5ZM12.375 4.875C12.1761 4.875 11.9853 4.95402 11.8447 5.09467C11.704 5.23532 11.625 5.42609 11.625 5.625C11.625 5.82391 11.704 6.01468 11.8447 6.15533C11.9853 6.29598 12.1761 6.375 12.375 6.375C12.5739 6.375 12.7647 6.29598 12.9053 6.15533C13.046 6.01468 13.125 5.82391 13.125 5.625C13.125 5.42609 13.046 5.23532 12.9053 5.09467C12.7647 4.95402 12.5739 4.875 12.375 4.875Z" fill="#121212" fill-opacity="0.44"/>
</g>
</g>
<defs>
<clipPath id="clip0_18176_25578">
<rect width="18" height="18" fill="white"/>
</clipPath>
</defs>
</svg>
