<svg width="18" height="18" viewBox="0 0 18 18" fill="none" xmlns="http://www.w3.org/2000/svg">
<g id="mingcute:youtube-fill" clip-path="url(#clip0_18176_25583)">
<g id="Group">
<path id="Vector" fill-rule="evenodd" clip-rule="evenodd" d="M9 3C9.64125 3 10.299 3.0165 10.9365 3.0435L11.6895 3.0795L12.4102 3.12225L13.0852 3.168L13.7017 3.216C14.3708 3.26721 15.0003 3.55271 15.4796 4.02228C15.959 4.49185 16.2573 5.11541 16.3222 5.78325L16.3522 6.102L16.4085 6.7845C16.461 7.49175 16.5 8.26275 16.5 9C16.5 9.73725 16.461 10.5083 16.4085 11.2155L16.3522 11.898C16.3425 12.0075 16.3327 12.1132 16.3222 12.2167C16.2573 12.8847 15.9588 13.5084 15.4794 13.9779C14.9999 14.4475 14.3702 14.733 13.701 14.784L13.086 14.8312L12.411 14.8778L11.6895 14.9205L10.9365 14.9565C10.2914 14.9845 9.64573 14.999 9 15C8.35427 14.999 7.70862 14.9845 7.0635 14.9565L6.3105 14.9205L5.58975 14.8778L4.91475 14.8312L4.29825 14.784C3.62921 14.7328 2.99966 14.4473 2.52035 13.9777C2.04105 13.5082 1.74268 12.8846 1.67775 12.2167L1.64775 11.898L1.5915 11.2155C1.53415 10.4784 1.50363 9.73937 1.5 9C1.5 8.26275 1.539 7.49175 1.5915 6.7845L1.64775 6.102C1.6575 5.9925 1.66725 5.88675 1.67775 5.78325C1.74266 5.11552 2.04091 4.49206 2.52007 4.02251C2.99922 3.55295 3.6286 3.26738 4.2975 3.216L4.91325 3.168L5.58825 3.12225L6.30975 3.0795L7.06275 3.0435C7.70812 3.01547 8.35402 3.00097 9 3ZM7.5 7.18125V10.8188C7.5 11.1652 7.875 11.3812 8.175 11.2087L11.325 9.39C11.3935 9.35054 11.4505 9.29372 11.4901 9.22525C11.5297 9.15678 11.5505 9.07909 11.5505 9C11.5505 8.92091 11.5297 8.84322 11.4901 8.77475C11.4505 8.70628 11.3935 8.64946 11.325 8.61L8.175 6.792C8.10657 6.75249 8.02894 6.7317 7.94993 6.73171C7.87091 6.73172 7.79329 6.75254 7.72487 6.79207C7.65646 6.8316 7.59965 6.88845 7.56018 6.9569C7.5207 7.02535 7.49995 7.10298 7.5 7.182V7.18125Z" fill="#121212" fill-opacity="0.44"/>
</g>
</g>
<defs>
<clipPath id="clip0_18176_25583">
<rect width="18" height="18" fill="white"/>
</clipPath>
</defs>
</svg>
