<svg width="60" height="60" viewBox="0 0 60 60" fill="none" xmlns="http://www.w3.org/2000/svg">
<g clip-path="url(#clip0_18176_6259)">
<path fill-rule="evenodd" clip-rule="evenodd" d="M20.5491 9.88633L25.1642 11.123C25.8624 11.2989 26.4823 11.7091 26.9159 12.2845C27.352 12.8672 27.5713 13.5804 27.5279 14.3052L27.4129 16.3486C27.563 16.4894 27.7096 16.6322 27.8527 16.777L29.9804 16.6594C30.4175 16.6374 30.8545 16.7061 31.2638 16.8612C31.6731 17.0163 32.0458 17.2544 32.3586 17.5606C32.7451 17.9393 33.0293 18.4103 33.1753 18.9331L34.4743 23.3984C34.6912 24.0945 34.649 24.8456 34.3556 25.5131C34.0622 26.1806 33.5373 26.7195 32.8778 27.0303L32.8737 27.0292L30.987 27.9279L30.8439 28.4619L31.9988 30.22C32.4061 30.8087 32.5911 31.523 32.5208 32.2355C32.4506 32.948 32.1296 33.6124 31.6151 34.1103L28.3277 37.3556L28.3266 37.3597C27.9378 37.737 27.4577 38.0069 26.9333 38.1429C26.4088 38.2788 25.8581 38.2763 25.335 38.1354C25.0109 38.0504 24.7021 37.9153 24.4197 37.7349L24.4105 37.728L22.6427 36.5688C22.4428 36.6247 22.2415 36.675 22.0388 36.7198L21.1193 38.5454C20.7934 39.1949 20.2472 39.7074 19.5784 39.9915C18.9133 40.2744 18.1711 40.3199 17.4765 40.1204L12.824 38.8738C12.1244 38.6987 11.506 38.2887 11.0723 37.7123C10.6354 37.1325 10.4185 36.4164 10.4604 35.6915L10.5759 33.6461C10.4259 33.5068 10.2793 33.364 10.1361 33.2177L8.00845 33.3353C7.57131 33.3573 7.13434 33.2887 6.72505 33.1336C6.31576 32.9784 5.94301 32.7403 5.63027 32.4341C5.2425 32.0575 4.96046 31.5857 4.81239 31.0658L3.51358 26.5916C3.30852 25.9115 3.34958 25.181 3.62955 24.5282C3.90953 23.8754 4.41052 23.3421 5.04455 23.022L7.11296 21.4865L5.98952 19.7768C5.58163 19.1874 5.39658 18.4721 5.46743 17.7588C5.53829 17.0455 5.86043 16.3806 6.3763 15.8829L6.38155 15.8799L9.74552 12.6551C10.1293 12.2809 10.6034 12.0124 11.1216 11.8757C11.6398 11.7389 12.1846 11.7386 12.703 11.8747C13.0192 11.9417 13.3189 12.0538 13.6021 12.211L13.6443 12.2356L15.3969 13.4351C15.5933 13.3812 15.7913 13.3322 15.9909 13.2881L16.9104 11.4625C17.2363 10.813 17.7825 10.3004 18.4513 10.0164C19.1125 9.73433 19.8565 9.68965 20.5491 9.88633ZM20.1085 20.8602C19.0107 20.5661 17.841 20.7201 16.8568 21.2884C15.8725 21.8567 15.1543 22.7928 14.8601 23.8907C14.566 24.9886 14.7199 26.1583 15.2882 27.1426C15.8564 28.127 16.7923 28.8452 17.8901 29.1393C18.9879 29.4335 20.1576 29.2795 21.1418 28.7111C22.1261 28.1428 22.8443 27.2067 23.1385 26.1089C23.4327 25.011 23.2787 23.8412 22.7105 22.8569C22.1422 21.8726 21.2063 21.1544 20.1085 20.8602ZM12.7905 23.3361C13.2318 21.6893 14.3091 20.2852 15.7855 19.4327C17.2619 18.5803 19.0164 18.3492 20.6631 18.7904C22.3098 19.2316 23.7137 20.309 24.566 21.7855C25.4184 23.2619 25.6493 25.0166 25.2081 26.6634C24.7668 28.3102 23.6895 29.7143 22.2131 30.5668C20.7367 31.4193 18.9822 31.6503 17.3355 31.2091C15.6889 30.7679 14.2849 29.6906 13.4326 28.2141C12.5802 26.7376 12.3493 24.983 12.7905 23.3361Z" fill="#9CCBFF"/>
<path fill-rule="evenodd" clip-rule="evenodd" d="M33.9402 14.0004H39.9923C40.9042 13.9869 41.7971 14.2854 42.5163 14.8473C43.241 15.4173 43.743 16.218 43.9276 17.1191L44.4568 19.6569C44.6866 19.7799 44.9127 19.9066 45.1353 20.0368L47.7 19.1954C48.2276 19.0251 48.7847 18.9659 49.3364 19.0215C49.888 19.0771 50.4221 19.2463 50.9052 19.5184C51.5022 19.855 52.0043 20.3381 52.3544 20.9298L55.4076 25.9674C55.9012 26.748 56.0958 27.6807 55.9557 28.5936C55.8155 29.5065 55.35 30.3379 54.645 30.9344H54.6396L52.6258 32.6525V33.3528L54.6151 35.1251C55.3065 35.7119 55.767 36.5252 55.9147 37.42C56.0623 38.3148 55.8874 39.2329 55.4212 40.0107L52.463 45.0591V45.0646C52.1109 45.6537 51.6119 46.1412 51.0149 46.4795C50.4178 46.8178 49.7432 46.9952 49.057 46.9944C48.6326 46.9966 48.2104 46.9325 47.8058 46.8044L47.7923 46.7989L45.2493 45.9603C45.0231 46.0942 44.7933 46.2217 44.5599 46.343L44.0334 48.878C43.8476 49.7796 43.3474 50.5857 42.6222 51.1525C41.9012 51.7167 41.0081 52.0157 40.0928 51.9994H33.9918C33.0783 52.0144 32.1874 51.7155 31.4678 51.1525C30.7431 50.5864 30.243 49.7813 30.0566 48.8807L29.5273 46.3402C29.2982 46.219 29.072 46.0923 28.8489 45.9603L26.2842 46.8017C25.7566 46.972 25.1994 47.0312 24.6478 46.9756C24.0962 46.92 23.562 46.7508 23.079 46.4787C22.4811 46.1451 21.9813 45.6602 21.6297 45.0727L18.5738 40.0243C18.1 39.2595 17.9107 38.3522 18.0393 37.4617C18.1678 36.5712 18.606 35.7545 19.2767 35.155L21.3041 32.5982L19.369 30.8747C18.6767 30.2872 18.2158 29.4728 18.0687 28.5768C17.9215 27.6808 18.0977 26.7617 18.5657 25.9837L18.5711 25.9782L21.6297 20.9298C21.9767 20.3462 22.4686 19.8623 23.0578 19.5251C23.6471 19.1879 24.3135 19.0089 24.9923 19.0054C25.4012 18.9837 25.8047 19.0226 26.2028 19.1222L26.2625 19.1384L28.8 20.0314C29.0226 19.9011 29.2487 19.7763 29.4785 19.6569L30.005 17.1218C30.1909 16.2202 30.691 15.4141 31.4163 14.8473C32.1327 14.2854 33.0283 13.9869 33.9402 14.0004ZM36.9989 27.5715C35.5593 27.5715 34.1787 28.1434 33.1608 29.1614C32.1428 30.1795 31.571 31.5602 31.571 32.9999C31.571 34.4396 32.1428 35.8203 33.1608 36.8384C34.1787 37.8564 35.5593 38.4283 36.9989 38.4283C38.4384 38.4283 39.819 37.8564 40.837 36.8384C41.8549 35.8203 42.4268 34.4396 42.4268 32.9999C42.4268 31.5602 41.8549 30.1795 40.837 29.1614C39.819 28.1434 38.4384 27.5715 36.9989 27.5715ZM28.857 32.9999C28.857 30.8403 29.7148 28.7692 31.2417 27.2422C32.7686 25.7152 34.8395 24.8573 36.9989 24.8573C39.1582 24.8573 41.2291 25.7152 42.756 27.2422C44.2829 28.7692 45.1407 30.8403 45.1407 32.9999C45.1407 35.1595 44.2829 37.2306 42.756 38.7576C41.2291 40.2847 39.1582 41.1425 36.9989 41.1425C34.8395 41.1425 32.7686 40.2847 31.2417 38.7576C29.7148 37.2306 28.857 35.1595 28.857 32.9999Z" fill="#007AFF"/>
<circle cx="37" cy="33" r="9" fill="white"/>
<circle cx="37" cy="33" r="6" fill="#007AFF"/>
</g>
<defs>
<clipPath id="clip0_18176_6259">
<rect width="60" height="60" fill="white"/>
</clipPath>
</defs>
</svg>
