<svg width="60" height="60" viewBox="0 0 60 60" fill="none" xmlns="http://www.w3.org/2000/svg">
<g clip-path="url(#clip0_18176_6276)">
<rect x="11" y="11" width="38" height="38" rx="4" fill="#9CCBFF"/>
<rect x="14" y="14" width="32" height="32" rx="3" fill="#007AFF"/>
<path d="M29.7227 35.3789L29.0391 33.582H23.2188L22.5352 35.418C22.2682 36.1341 22.0404 36.6191 21.8516 36.873C21.6628 37.1204 21.3535 37.2441 20.9238 37.2441C20.5592 37.2441 20.237 37.1107 19.957 36.8438C19.6771 36.5768 19.5371 36.2741 19.5371 35.9355C19.5371 35.7402 19.5697 35.5384 19.6348 35.3301C19.6999 35.1217 19.8073 34.832 19.957 34.4609L23.6191 25.1641C23.7233 24.8971 23.847 24.5781 23.9902 24.207C24.14 23.8294 24.2962 23.5169 24.459 23.2695C24.6283 23.0221 24.8464 22.8236 25.1133 22.6738C25.3867 22.5176 25.722 22.4395 26.1191 22.4395C26.5228 22.4395 26.8581 22.5176 27.125 22.6738C27.3984 22.8236 27.6165 23.0189 27.7793 23.2598C27.9486 23.5007 28.0885 23.7611 28.1992 24.041C28.3164 24.3145 28.4629 24.6823 28.6387 25.1445L32.3789 34.3828C32.6719 35.0859 32.8184 35.597 32.8184 35.916C32.8184 36.248 32.6784 36.554 32.3984 36.834C32.125 37.1074 31.793 37.2441 31.4023 37.2441C31.1745 37.2441 30.9792 37.2018 30.8164 37.1172C30.6536 37.0391 30.5169 36.9316 30.4062 36.7949C30.2956 36.6517 30.1751 36.4368 30.0449 36.1504C29.9212 35.8574 29.8138 35.6003 29.7227 35.3789ZM23.9805 31.4043H28.2578L26.0996 25.4961L23.9805 31.4043ZM35.0742 35.4766V24.1973C35.0742 23.6113 35.2077 23.1719 35.4746 22.8789C35.7415 22.5859 36.0866 22.4395 36.5098 22.4395C36.946 22.4395 37.2975 22.5859 37.5645 22.8789C37.8379 23.1654 37.9746 23.6048 37.9746 24.1973V35.4766C37.9746 36.069 37.8379 36.5117 37.5645 36.8047C37.2975 37.0977 36.946 37.2441 36.5098 37.2441C36.0931 37.2441 35.748 37.0977 35.4746 36.8047C35.2077 36.5052 35.0742 36.0625 35.0742 35.4766Z" fill="white"/>
<path fill-rule="evenodd" clip-rule="evenodd" d="M22 5C21.4477 5 21 5.44772 21 6V11H25V6C25 5.44772 24.5523 5 24 5H22ZM36 5C35.4477 5 35 5.44772 35 6V11H39V6C39 5.44772 38.5523 5 38 5H36Z" fill="#9CCBFF"/>
<path fill-rule="evenodd" clip-rule="evenodd" d="M38 55C38.5523 55 39 54.5523 39 54L39 49L35 49L35 54C35 54.5523 35.4477 55 36 55L38 55ZM24 55C24.5523 55 25 54.5523 25 54L25 49L21 49L21 54C21 54.5523 21.4477 55 22 55L24 55Z" fill="#9CCBFF"/>
<path fill-rule="evenodd" clip-rule="evenodd" d="M5 38C5 38.5523 5.44772 39 6 39L11 39L11 35L6 35C5.44772 35 5 35.4477 5 36L5 38ZM5 24C5 24.5523 5.44771 25 6 25L11 25L11 21L6 21C5.44771 21 5 21.4477 5 22L5 24Z" fill="#9CCBFF"/>
<path fill-rule="evenodd" clip-rule="evenodd" d="M55 38C55 38.5523 54.5523 39 54 39L49 39L49 35L54 35C54.5523 35 55 35.4477 55 36L55 38ZM55 24C55 24.5523 54.5523 25 54 25L49 25L49 21L54 21C54.5523 21 55 21.4477 55 22L55 24Z" fill="#9CCBFF"/>
</g>
<defs>
<clipPath id="clip0_18176_6276">
<rect width="60" height="60" fill="white"/>
</clipPath>
</defs>
</svg>
