<svg width="33" height="32" viewBox="0 0 33 32" fill="none" xmlns="http://www.w3.org/2000/svg">
<g id="ic:baseline-apple">
<path id="Vector" d="M23.6078 28.2638C22.2293 29.671 20.7243 29.4488 19.2756 28.7822C17.7424 28.1008 16.3359 28.0712 14.7183 28.7822C12.6929 29.7006 11.6239 29.434 10.4143 28.2638C3.55028 20.8129 4.563 9.46613 12.3553 9.05137C14.2542 9.15506 15.5763 10.1475 16.6875 10.2364C18.3472 9.8809 19.9366 8.8588 21.7089 8.99212C23.8328 9.16988 25.4363 10.0587 26.4912 11.6584C22.1027 14.4285 23.1436 20.5166 27.1663 22.2201C26.3646 24.442 25.3238 26.6492 23.5937 28.2786L23.6078 28.2638ZM16.5468 8.96249C16.3359 5.65921 18.8817 2.93363 21.8074 2.66699C22.2153 6.48873 18.516 9.33282 16.5468 8.96249Z" fill="white"/>
</g>
</svg>
